<svg xmlns="http://www.w3.org/2000/svg" version="1.1" xmlns:xlink="http://www.w3.org/1999/xlink" xmlns:svgjs="http://svgjs.dev/svgjs" width="1000" height="1000" viewBox="0 0 1000 1000"><rect width="1000" height="1000" fill="#ffffff"></rect><g transform="matrix(0.7,0,0,0.7,149.57575757575756,448.8324762441821)"><svg viewBox="0 0 396 58" data-background-color="#ffffff" preserveAspectRatio="xMidYMid meet" height="146" width="1000" xmlns="http://www.w3.org/2000/svg" xmlns:xlink="http://www.w3.org/1999/xlink"><g id="tight-bounds" transform="matrix(1,0,0,1,0.2400000000000091,0.03832072247985252)"><svg viewBox="0 0 395.52 57.92335855504027" height="57.92335855504027" width="395.52"><g><svg viewBox="0 0 395.52 57.92335855504027" height="57.92335855504027" width="395.52"><g><svg viewBox="0 0 395.52 57.92335855504027" height="57.92335855504027" width="395.52"><g id="textblocktransform"><svg viewBox="0 0 395.52 57.92335855504027" height="57.92335855504027" width="395.52" id="textblock"><g><svg viewBox="0 0 395.52 57.92335855504027" height="57.92335855504027" width="395.52"><g transform="matrix(1,0,0,1,0,0)"><svg width="395.52" viewBox="0.95 -42.19 300.06 43.949999999999996" height="57.92335855504027" data-palette-color="#0063db"><path d="M18.6-24.61L18.6-24.61 15.65-24.61Q13.77-24.61 12.94-25.57 12.11-26.54 12.11-28.13L12.11-28.13Q12.11-31.64 17.36-31.64L17.36-31.64Q22.29-31.64 24.78-30.18L24.78-30.18 23.36-29.1Q21.66-29.88 17.36-29.88L17.36-29.88Q15.26-29.88 14.54-29.42 13.82-28.96 13.82-28.13 13.82-27.29 14.21-26.83 14.6-26.37 15.65-26.37L15.65-26.37 18.68-26.37Q21.97-26.37 24.62-25.24 27.27-24.12 28.98-22.18 30.69-20.24 31.59-17.71 32.5-15.19 32.5-12.3L32.5-12.3Q32.5-9.96 31.84-7.86 31.18-5.76 29.85-4 28.52-2.25 26.65-0.96 24.78 0.32 22.2 1.04 19.63 1.76 16.63 1.76L16.63 1.76Q11.91 1.76 7.8 0.33 3.69-1.1 0.95-3.66L0.95-3.66 2.37-4.71Q4.86-2.47 8.61-1.23 12.35 0 16.63 0L16.63 0Q19.97 0 22.67-0.96 25.37-1.93 27.11-3.61 28.86-5.3 29.8-7.52 30.74-9.74 30.74-12.3L30.74-12.3Q30.74-15.7 29.37-18.44 28-21.19 25.21-22.9 22.41-24.61 18.6-24.61ZM15.65-22.85L15.65-22.85 18.43-22.85Q23.39-22.85 26.18-19.82 28.98-16.8 28.98-12.3L28.98-12.3Q28.98-7.74 25.73-4.75 22.49-1.76 16.63-1.76L16.63-1.76Q12.72-1.76 9.33-2.83 5.93-3.91 3.69-5.86L3.69-5.86 5.05-6.96Q7.06-5.32 10.1-4.42 13.13-3.52 16.63-3.52L16.63-3.52Q21.78-3.52 24.5-5.98 27.22-8.45 27.22-12.3L27.22-12.3Q27.22-16.11 24.94-18.6 22.66-21.09 18.41-21.09L18.41-21.09 15.65-21.09Q12.08-21.09 10.3-23.05 8.52-25 8.52-28.13 8.52-31.25 10.73-33.2 12.94-35.16 17.36-35.16L17.36-35.16Q20.46-35.16 23.12-34.44 25.78-33.72 27.51-32.37L27.51-32.37 26.12-31.3Q23.07-33.4 17.36-33.4L17.36-33.4Q13.67-33.4 11.98-31.95 10.28-30.49 10.28-28.13L10.28-28.13Q10.28-25.73 11.54-24.29 12.79-22.85 15.65-22.85ZM15.65-19.34L15.65-19.34 18.33-19.34Q21.9-19.34 23.68-17.36 25.46-15.38 25.46-12.3L25.46-12.3Q25.46-9.18 23.25-7.23 21.04-5.27 16.63-5.27L16.63-5.27Q13.53-5.27 10.85-5.99 8.18-6.71 6.45-8.06L6.45-8.06 7.84-9.13Q10.89-7.03 16.63-7.03L16.63-7.03Q20.31-7.03 22.01-8.48 23.71-9.94 23.71-12.3 23.71-14.67 22.44-16.13 21.17-17.58 18.31-17.58L18.31-17.58 15.65-17.58Q10.64-17.58 7.82-20.57 5-23.56 5-28.13 5-32.69 8.25-35.68 11.5-38.67 17.36-38.67L17.36-38.67Q21.26-38.67 24.65-37.6 28.03-36.52 30.27-34.57L30.27-34.57 28.91-33.47Q26.9-35.11 23.88-36.01 20.85-36.91 17.36-36.91L17.36-36.91Q12.21-36.91 9.48-34.45 6.76-31.98 6.76-28.13L6.76-28.13Q6.76-24.29 9.06-21.81 11.35-19.34 15.65-19.34ZM15.65-15.82L15.65-15.82 18.33-15.82Q20.21-15.82 21.04-14.84 21.88-13.87 21.88-12.3L21.88-12.3Q21.88-8.79 16.63-8.79L16.63-8.79Q11.67-8.79 9.18-10.25L9.18-10.25 10.6-11.33Q12.3-10.55 16.63-10.55L16.63-10.55Q18.73-10.55 19.45-11.01 20.17-11.47 20.17-12.3L20.17-12.3Q20.17-13.11 19.76-13.59 19.36-14.06 18.29-14.06L18.29-14.06 15.65-14.06Q12.28-14.06 9.56-15.16 6.84-16.26 5.09-18.19 3.34-20.12 2.42-22.66 1.49-25.2 1.49-28.13L1.49-28.13Q1.49-30.47 2.15-32.57 2.81-34.67 4.14-36.43 5.47-38.18 7.34-39.47 9.2-40.75 11.78-41.47 14.36-42.19 17.36-42.19L17.36-42.19Q22.07-42.19 26.17-40.76 30.27-39.33 33.01-36.77L33.01-36.77 31.59-35.72Q29.1-37.96 25.37-39.2 21.63-40.43 17.36-40.43L17.36-40.43Q14.01-40.43 11.32-39.47 8.62-38.5 6.87-36.82 5.13-35.13 4.19-32.91 3.25-30.69 3.25-28.13L3.25-28.13Q3.25-24.68 4.64-21.92 6.03-19.17 8.89-17.49 11.74-15.82 15.65-15.82ZM61.25-11.87L53.83-11.87 54.54-13.62 60.54-13.62 61.25-11.87ZM62.67-8.35L52.46-8.35 53.15-10.11 61.91-10.11 62.67-8.35ZM64.04-4.83L51.1-4.83 51.78-6.59 63.3-6.59 64.04-4.83ZM51.85-38.06L36.81 0 34.91 0 50.9-40.43 52.81-40.43 68.77 0 66.89 0 51.85-38.06ZM38.69 0L52.07-33.89 53.07-31.64 40.57 0 38.69 0ZM42.48 0L54.03-29.25 54.95-26.83 44.38 0 42.48 0ZM46.26 0L55.88-24.41 56.81-21.95 48.14 0 46.26 0ZM64.13-40.43L80.12 0 78.22 0 62.25-40.43 64.13-40.43ZM58.47-40.43L60.35-40.43 76.34 0 74.46 0 58.47-40.43ZM54.69-40.43L56.56-40.43 72.56 0 70.65 0 54.69-40.43ZM111.66-17.77L111.66-17.77 111.66-40.43 113.42-40.43 113.42-17.77Q113.42-14.06 110.49-11.43 107.56-8.79 103.46-8.79 99.36-8.79 96.43-11.43 93.5-14.06 93.5-17.77L93.5-17.77 93.5-40.43 95.26-40.43 95.26-17.77Q95.26-14.79 97.66-12.67 100.07-10.55 103.46-10.55 106.86-10.55 109.26-12.67 111.66-14.79 111.66-17.77ZM115.18-17.77L115.18-17.77 115.18-40.43 116.94-40.43 116.94-17.77Q116.94-15.23 115.86-12.93 114.79-10.62 112.98-8.94 111.18-7.25 108.69-6.26 106.2-5.27 103.46-5.27 100.73-5.27 98.24-6.26 95.75-7.25 93.94-8.94 92.13-10.62 91.06-12.93 89.99-15.23 89.99-17.77L89.99-17.77 89.99-40.43 91.74-40.43 91.74-17.77Q91.74-14.87 93.32-12.39 94.89-9.91 97.59-8.47 100.29-7.03 103.46-7.03 106.64-7.03 109.33-8.47 112.03-9.91 113.61-12.39 115.18-14.87 115.18-17.77ZM118.7-17.77L118.7-17.77 118.7-40.43 120.45-40.43 120.45-17.77Q120.45-14.53 119.1-11.56 117.74-8.59 115.47-6.45 113.2-4.3 110.05-3.03 106.9-1.76 103.46-1.76 100.02-1.76 96.87-3.03 93.72-4.3 91.45-6.45 89.18-8.59 87.82-11.56 86.47-14.53 86.47-17.77L86.47-17.77 86.47-40.43 88.23-40.43 88.23-17.77Q88.23-13.92 90.28-10.63 92.33-7.35 95.83-5.43 99.34-3.52 103.46-3.52 107.59-3.52 111.09-5.43 114.59-7.35 116.65-10.63 118.7-13.92 118.7-17.77ZM122.21-17.77L122.21-17.77 122.21-40.43 123.97-40.43 123.97-17.77Q123.97-12.5 121.21-8 118.45-3.49 113.73-0.87 109 1.76 103.46 1.76 97.92 1.76 93.2-0.87 88.47-3.49 85.71-8 82.95-12.5 82.95-17.77L82.95-17.77 82.95-40.43 84.71-40.43 84.71-17.77Q84.71-14.18 86.2-10.89 87.69-7.59 90.2-5.21 92.72-2.83 96.2-1.42 99.68 0 103.46 0 107.25 0 110.72-1.42 114.2-2.83 116.72-5.21 119.23-7.59 120.72-10.89 122.21-14.18 122.21-17.77ZM141.74-18.36L141.74-20.12 152.34-20.12Q154.75-20.12 156.43-21.68 158.1-23.24 158.1-26.12L158.1-26.12Q158.1-28.25 156.34-29.94 154.58-31.64 152.34-31.64L152.34-31.64 137.25-31.64 137.25 0 135.49 0 135.49-33.4 152.34-33.4Q155.31-33.4 157.59-31.19 159.86-28.98 159.86-26.12L159.86-26.12Q159.86-22.61 157.66-20.48 155.46-18.36 152.34-18.36L152.34-18.36 141.74-18.36ZM141.74-14.84L141.74-16.6 152.34-16.6Q156.14-16.6 158.88-19.27 161.61-21.95 161.61-26.12L161.61-26.12Q161.61-29.71 158.82-32.43 156.02-35.16 152.34-35.16L152.34-35.16 133.73-35.16 133.73 0 131.97 0 131.97-36.91 152.34-36.91Q155.24-36.91 157.79-35.42 160.34-33.94 161.86-31.43 163.37-28.93 163.37-26.12L163.37-26.12Q163.37-21.31 160.11-18.08 156.85-14.84 152.34-14.84L152.34-14.84 141.74-14.84ZM141.74-11.33L141.74-13.09 152.34-13.09Q155.75-13.09 158.68-14.77 161.61-16.46 163.37-19.47 165.13-22.49 165.13-26.12L165.13-26.12Q165.13-29.42 163.38-32.31 161.64-35.21 158.68-36.94 155.73-38.67 152.34-38.67L152.34-38.67 130.22-38.67 130.22 0 128.46 0 128.46-40.43 152.34-40.43Q156.17-40.43 159.54-38.46 162.91-36.5 164.9-33.19 166.89-29.88 166.89-26.12L166.89-26.12Q166.89-21.78 165.02-18.48 163.15-15.19 159.95-13.33L159.95-13.33 164.49 0 162.64 0 158.29-12.5Q157.32-12.11 156.8-11.96L156.8-11.96 160.88 0 159.03 0 155.05-11.55Q154.83-11.5 153.48-11.38L153.48-11.38 157.27 0 155.41 0 151.68-11.33 150.09-11.33 153.65 0 151.8 0 148.21-11.33 141.74-11.33ZM140.76-28.13L140.76 0 139.01 0 139.01-29.88 152.34-29.88Q153.97-29.88 155.16-28.77 156.34-27.66 156.34-26.12L156.34-26.12Q156.34-21.88 152.34-21.88L152.34-21.88 141.74-21.88 141.74-23.63 152.34-23.63Q153.39-23.63 153.98-24.18 154.58-24.73 154.58-26.12L154.58-26.12Q154.58-26.98 153.94-27.55 153.29-28.13 152.34-28.13L152.34-28.13 140.76-28.13ZM195.52-11.87L188.1-11.87 188.81-13.62 194.81-13.62 195.52-11.87ZM196.94-8.35L186.73-8.35 187.42-10.11 196.18-10.11 196.94-8.35ZM198.31-4.83L185.37-4.83 186.05-6.59 197.57-6.59 198.31-4.83ZM186.12-38.06L171.08 0 169.18 0 185.17-40.43 187.07-40.43 203.04 0 201.16 0 186.12-38.06ZM172.96 0L186.34-33.89 187.34-31.64 174.84 0 172.96 0ZM176.75 0L188.3-29.25 189.22-26.83 178.65 0 176.75 0ZM180.53 0L190.15-24.41 191.08-21.95 182.41 0 180.53 0ZM198.4-40.43L214.39 0 212.49 0 196.52-40.43 198.4-40.43ZM192.74-40.43L194.62-40.43 210.61 0 208.73 0 192.74-40.43ZM188.95-40.43L190.83-40.43 206.83 0 204.92 0 188.95-40.43ZM244.32-14.09L244.32-14.09Q244.32-15.04 243.75-15.36 243.18-15.67 242.08-15.67L242.08-15.67 230.75-15.67 230.75-17.43 242.08-17.43Q246.08-17.43 246.08-14.09L246.08-14.09Q246.08-12.21 244.98-11.38 243.88-10.55 242.08-10.55L242.08-10.55 230.75-10.55 230.75-12.3 242.08-12.3Q244.32-12.3 244.32-14.09ZM229.77-28.13L229.77 0 228.01 0 228.01-29.88 242.08-29.88Q243.74-29.88 244.91-28.87 246.08-27.86 246.08-26.34L246.08-26.34Q246.08-24.34 244.98-23.45 243.88-22.56 242.08-22.56L242.08-22.56 230.75-22.56 230.75-24.32 242.08-24.32Q244.32-24.32 244.32-26.34L244.32-26.34Q244.32-27.17 243.69-27.65 243.05-28.13 242.08-28.13L242.08-28.13 229.77-28.13ZM230.75-19.04L230.75-20.8 242.08-20.8Q244.49-20.8 246.17-22.25 247.84-23.71 247.84-26.34L247.84-26.34Q247.84-28.47 246.09-30.05 244.35-31.64 242.08-31.64L242.08-31.64 226.26-31.64 226.26 0 224.5 0 224.5-33.4 242.08-33.4Q245.08-33.4 247.34-31.29 249.6-29.17 249.6-26.34L249.6-26.34Q249.6-24.12 248.56-22.46 247.52-20.8 245.76-19.9L245.76-19.9Q249.6-18.53 249.6-14.33L249.6-14.33Q249.6-11.01 247.4-9.02 245.2-7.03 242.08-7.03L242.08-7.03 230.75-7.03 230.75-8.79 242.08-8.79Q244.49-8.79 246.17-10.24 247.84-11.69 247.84-14.33L247.84-14.33Q247.84-16.11 246.57-17.48 245.3-18.85 242.83-19.07L242.83-19.07Q242.59-19.04 242.08-19.04L242.08-19.04 230.75-19.04ZM253.11-26.34L253.11-26.34Q253.11-22.92 250.7-20.17L250.7-20.17Q253.11-17.48 253.11-14.33L253.11-14.33Q253.11-11.28 251.59-8.78 250.06-6.27 247.53-4.9 245.01-3.52 242.08-3.52L242.08-3.52 230.75-3.52 230.75-5.27 242.08-5.27Q245.89-5.27 248.62-7.82 251.35-10.38 251.35-14.33L251.35-14.33Q251.35-15.75 250.63-17.47 249.91-19.19 248.64-20.09L248.64-20.09Q251.35-22.63 251.35-26.34L251.35-26.34Q251.35-29.91 248.57-32.53 245.79-35.16 242.08-35.16L242.08-35.16 222.74-35.16 222.74 0 220.98 0 220.98-36.91 242.08-36.91Q244.98-36.91 247.53-35.49 250.09-34.06 251.6-31.6 253.11-29.15 253.11-26.34ZM252.7-20.07L252.7-20.07Q254.87-22.97 254.87-26.34L254.87-26.34Q254.87-29.64 253.12-32.48 251.38-35.33 248.43-37 245.47-38.67 242.08-38.67L242.08-38.67 219.23-38.67 219.23 0 217.47 0 217.47-40.43 242.08-40.43Q245.93-40.43 249.29-38.53 252.65-36.62 254.64-33.36 256.63-30.1 256.63-26.34L256.63-26.34Q256.63-22.75 254.6-20.04L254.6-20.04Q256.63-17.24 256.63-14.33L256.63-14.33Q256.63-11.06 255.46-8.34 254.28-5.62 252.29-3.81 250.3-2 247.67-1 245.03 0 242.08 0L242.08 0 230.75 0 230.75-1.76 242.08-1.76Q244.64-1.76 246.98-2.72 249.33-3.69 251.06-5.35 252.8-7.01 253.83-9.35 254.87-11.69 254.87-14.33L254.87-14.33Q254.87-15.5 254.32-17.15 253.77-18.8 252.7-20.07ZM299.25 0L299.25-40.43 301.01-40.43 301.01 0 299.25 0ZM260.58 0L260.58-40.43 262.34-40.43 262.34 0 260.58 0ZM295.74 0L295.74-40.43 297.49-40.43 297.49 0 295.74 0ZM292.22 0L292.22-40.43 293.98-40.43 293.98 0 292.22 0ZM288.71-24.63L288.71-40.43 290.46-40.43 290.46 0 288.71 0 288.71-15.84 272.89-15.84 272.89 0 271.13 0 271.13-40.43 272.89-40.43 272.89-24.63 288.71-24.63ZM267.61 0L267.61-40.43 269.37-40.43 269.37 0 267.61 0ZM264.1 0L264.1-40.43 265.85-40.43 265.85 0 264.1 0ZM272.89-17.6L288.71-17.6 288.71-19.36 272.89-19.36 272.89-17.6ZM272.89-21.12L288.71-21.12 288.71-22.88 272.89-22.88 272.89-21.12Z" opacity="1" transform="matrix(1,0,0,1,0,0)" fill="#0063db" class="wordmark-text-0" data-fill-palette-color="primary" id="text-0"></path></svg></g></svg></g></svg></g></svg></g></svg></g><defs></defs></svg><rect width="395.52" height="57.92335855504027" fill="none" stroke="none" visibility="hidden"></rect></g></svg></g></svg>